<?xml version="1.0" encoding="UTF-8"?>
<svg width="43px" height="54px" viewBox="0 0 43 54" version="1.1" xmlns="http://www.w3.org/2000/svg" xmlns:xlink="http://www.w3.org/1999/xlink">
    <!-- Generator: Sketch 53.2 (72643) - https://sketchapp.com -->
    <title>Shape</title>
    <desc>Created with Sketch.</desc>
    <defs>
        <filter x="-69.0%" y="-50.0%" width="237.9%" height="200.0%" filterUnits="objectBoundingBox" id="filter-1">
            <feOffset dx="3" dy="3" in="SourceAlpha" result="shadowOffsetOuter1"></feOffset>
            <feGaussianBlur stdDeviation="3.5" in="shadowOffsetOuter1" result="shadowBlurOuter1"></feGaussianBlur>
            <feColorMatrix values="0 0 0 0 0   0 0 0 0 0   0 0 0 0 0  0 0 0 0.5 0" type="matrix" in="shadowBlurOuter1" result="shadowMatrixOuter1"></feColorMatrix>
            <feMerge>
                <feMergeNode in="shadowMatrixOuter1"></feMergeNode>
                <feMergeNode in="SourceGraphic"></feMergeNode>
            </feMerge>
        </filter>
    </defs>
    <g id="Page" stroke="none" stroke-width="1" fill="none" fill-rule="evenodd">
        <g id="industrial" transform="translate(-1311.000000, -6537.000000)" fill="#CE0023" fill-rule="nonzero">
            <g id="map" transform="translate(960.000000, 6268.000000)">
                <g id="maps-and-flags" filter="url(#filter-1)" transform="translate(355.000000, 273.000000)">
                    <path d="M14.5,0 C6.50465682,0 0,6.49860167 0,14.4864239 C0,24.399561 12.9760795,38.9526256 13.5285476,39.5673138 C14.0474688,40.1447364 14.9534696,40.1437208 15.4714524,39.5673138 C16.0239205,38.9526256 29,24.399561 29,14.4864239 C28.9998436,6.49860167 22.495265,0 14.5,0 Z M14.5,21.7749484 C10.4773442,21.7749484 7.20476252,18.5053351 7.20476252,14.4864239 C7.20476252,10.4675128 10.4774224,7.19797752 14.5,7.19797752 C18.5225776,7.19797752 21.7951593,10.4675909 21.7951593,14.486502 C21.7951593,18.5054132 18.5225776,21.7749484 14.5,21.7749484 Z" id="Shape"></path>
                </g>
            </g>
        </g>
    </g>
</svg>